<svg id="Layer_1" data-name="Layer 1" xmlns="http://www.w3.org/2000/svg" viewBox="0 0 76.39 91.82"><defs><style>.cls-1{fill:none;stroke:#f53d49;stroke-miterlimit:10;}.cls-2{fill:#f53d49;}</style></defs><title>iconMarkerHover</title><path class="cls-1" d="M50,5a37.7,37.7,0,0,0-37.7,37.7C12.26,63.51,50,96.28,50,96.32S87.65,63.5,87.65,42.7A37.69,37.69,0,0,0,50,5Z" transform="translate(-11.76 -4.5)"/><path class="cls-2" d="M74.43,44.47a3.17,3.17,0,0,1-.36.23.93.93,0,0,1-.42.1h-.19l-.22-.22a7.42,7.42,0,0,0,.76-1.7,5.25,5.25,0,0,0,.28-1.51,1.46,1.46,0,0,0-.17-.84,1.1,1.1,0,0,0-.65-.33.91.91,0,0,0,.29-.57.54.54,0,0,0-.34-.5,2,2,0,0,0-.92-.18,3.85,3.85,0,0,0-1.78.51,8.07,8.07,0,0,0-1.79,1.36,7.79,7.79,0,0,0-1.37,1.81,3.88,3.88,0,0,0-.49,1.49l-2.84,2.06c.79-1.65,1.34-2.83,1.64-3.56A4.8,4.8,0,0,0,66.31,41a.61.61,0,0,0-.15-.45.54.54,0,0,0-.41-.16,1.48,1.48,0,0,0-1,.54c-.36.36-.82.89-1.37,1.57A14.47,14.47,0,0,1,62.08,44a18.92,18.92,0,0,1-1.65,1.4,1.77,1.77,0,0,1-1,.4.53.53,0,0,1-.42-.2.8.8,0,0,1-.16-.53,2.64,2.64,0,0,1,.64-1.54,8.11,8.11,0,0,1,1.68-1.61,11,11,0,0,1,2.09-1.22c1.16-.51,1.73-1,1.73-1.58s-.26-.58-.79-.58a6.42,6.42,0,0,0-3,1.2A13.87,13.87,0,0,0,59.42,41a9.87,9.87,0,0,0-1.25,1.27,5.15,5.15,0,0,0-.72,1.17,2.74,2.74,0,0,0-.18.63c-.74.58-1.3,1-1.66,1.23a1.93,1.93,0,0,1-.94.38c-.29,0-.43-.18-.43-.53,0-.64.72-1.77,2.18-3.4.36-.37.54-.65.54-.83a3.24,3.24,0,0,0-.19-1.11c-.13-.37-.26-.55-.39-.55a2.12,2.12,0,0,0-1.1.46,17.48,17.48,0,0,0-2.11,1.63A20.12,20.12,0,0,0,51.57,43L50.46,44.2c-.28.32-.48.48-.58.48s-.23-.12-.23-.36c0-.43.65-1.37,2-2.82.2-.22.33-.36.39-.44a1.1,1.1,0,0,0,.17-.25.56.56,0,0,0,.08-.26.46.46,0,0,0-.25-.42,1.29,1.29,0,0,0-.64-.14,1.76,1.76,0,0,0-1.19.62,11.6,11.6,0,0,0-1.48,1.93,7.28,7.28,0,0,0-.62,1.1,2.86,2.86,0,0,0-.12.52,4.9,4.9,0,0,1-2.52,1.46c-.56,0-.84-.3-.84-.92a1.75,1.75,0,0,1,.24-.94q.24-.39.84-1.2a2.54,2.54,0,0,0,.61-1.11,1,1,0,0,0-.08-.35L46,40.6c-.09-.21-.17-.38-.22-.51a3.81,3.81,0,0,0,.61-.25.37.37,0,0,0,.17-.33,1.09,1.09,0,0,0-.13-.43,1.8,1.8,0,0,0-.35-.5.73.73,0,0,0-.49-.22,7.14,7.14,0,0,0-2.75.84,14.9,14.9,0,0,0-3.67,2.55,10.33,10.33,0,0,0-1,1.08,2.17,2.17,0,0,0-.43.8,3.4,3.4,0,0,0-.12,1,4,4,0,0,0,.32,1.56,4.28,4.28,0,0,0,.73,1.22c.27.32.5.47.68.47A2.43,2.43,0,0,0,40.77,47c.59-.57,1.49-1.52,2.7-2.86A8.64,8.64,0,0,0,42.76,47a1.8,1.8,0,0,0,.2.94.77.77,0,0,0,.69.32c.87,0,2.31-1.1,4.29-3.26a5.21,5.21,0,0,0,.31,1.65c.23.56.47.84.74.84a.74.74,0,0,0,.51-.26,10.86,10.86,0,0,0,.81-1c.37-.5.72-.94,1-1.34a13.3,13.3,0,0,1,1.18-1.28,7.88,7.88,0,0,1,1.78-1.43l-1,1.76c-.3.52-.52.92-.67,1.19a5.4,5.4,0,0,0-.34.81,2.54,2.54,0,0,0-.12.78c0,.89.34,1.34,1,1.34a2.73,2.73,0,0,0,1.54-.77c.6-.49,1.46-1.29,2.57-2.38a4.42,4.42,0,0,0,.48,1.63c.35.67.74,1,1.16,1a2.65,2.65,0,0,0,1.32-.43,10.16,10.16,0,0,0,1.6-1.22c.58-.53,1.26-1.21,2-2-.36.89-1,2.19-1.79,3.88l-.93.78c-.45.37-.82.69-1.1.94s-.57.56-.88.9a10,10,0,0,0-.83,1.07,4.61,4.61,0,0,0-.91,2.29c0,.31.13.46.38.46.46,0,1.17-.49,2.12-1.48a23.84,23.84,0,0,0,3.17-4.5l4-3.26a4.34,4.34,0,0,0,.29,1.23,3.28,3.28,0,0,0,.92,1.26,1.94,1.94,0,0,0,1.26.46q1.25,0,2.85-1.92a2.78,2.78,0,0,0,1.43-.2,6.07,6.07,0,0,0,1.32-1V44C74.78,44.22,74.54,44.4,74.43,44.47Zm-31.91-.73a9.58,9.58,0,0,1-2.39,2,1.23,1.23,0,0,1-.48.17.43.43,0,0,1-.38-.25,1.39,1.39,0,0,1-.13-.65,2.82,2.82,0,0,1,1.37-2.13,26.38,26.38,0,0,1,4.61-2.51C44.11,41.79,43.24,42.92,42.52,43.74Zm29.1-1.19a4.39,4.39,0,0,0-.32,1.6,3.39,3.39,0,0,0,.21,1.12,3.9,3.9,0,0,1-1.79.91c-.76,0-1.14-.27-1.14-.82,0-.07.1-.57.31-1.5a2.62,2.62,0,0,1,.68-1,9,9,0,0,1,1.24-1c.49-.34,1.08-.71,1.77-1.12A13.4,13.4,0,0,0,71.62,42.55Z" transform="translate(-11.76 -4.5)"/><path class="cls-2" d="M37.78,37.7c.18-.29.47-.69.85-1.2a12.79,12.79,0,0,0,.8-1.16,1.71,1.71,0,0,0,.22-.87.78.78,0,0,0,0-.14s0-.09,0-.14L39.52,34l-.38-1.14c-.12-.36-.21-.61-.28-.76a1.24,1.24,0,0,0-.5-.44,3.62,3.62,0,0,0-1.22-.34,17,17,0,0,0-2.28-.12,30.44,30.44,0,0,0-4.94.51,10.6,10.6,0,0,0-2.79.8,3.52,3.52,0,0,0-1.5,1.3,6.1,6.1,0,0,0-.73,2.12,8.06,8.06,0,0,0-.13.92.9.9,0,0,0,.11.48.64.64,0,0,0,.42.21,8,8,0,0,0,1,0h1.53q.63,0,.63-.12c0-.16-.48-.31-1.45-.45l-.37,0a.72.72,0,0,1-.21,0,.12.12,0,0,1-.06-.12c0-.16.53-.4,1.58-.74a30.91,30.91,0,0,1,3.69-.89,22.32,22.32,0,0,1,3.85-.38,17.82,17.82,0,0,1,2.6.16q-1.91,2.4-3.42,4.56t-2.52,3.88A23.55,23.55,0,0,0,30.7,46.3a5.24,5.24,0,0,0-.48,1.84,1,1,0,0,0,.25.74.76.76,0,0,0,.6.28c.54,0,1.13-.55,1.75-1.63l.32-.56.36-.64a6.65,6.65,0,0,0,.32-.61l-.42-.31Q34.57,42.92,37.78,37.7Z" transform="translate(-11.76 -4.5)"/></svg>