<svg id="Layer_1" data-name="Layer 1" xmlns="http://www.w3.org/2000/svg" viewBox="0 0 75.39 91.32"><defs><style>.cls-1{fill:#f53d49;}</style></defs><title>iconMarker</title><path class="cls-1" d="M69.57,42.82a2.74,2.74,0,0,0-.68,1q-.31,1.39-.31,1.5c0,.55.38.82,1.14.82a3.92,3.92,0,0,0,1.79-.92,3.29,3.29,0,0,1-.21-1.12,4.3,4.3,0,0,1,.32-1.6,13.21,13.21,0,0,1,1-1.87q-1,.62-1.77,1.13A8.41,8.41,0,0,0,69.57,42.82Z" transform="translate(-12.26 -5)"/><path class="cls-1" d="M40.51,42.89A2.8,2.8,0,0,0,39.14,45a1.38,1.38,0,0,0,.14.65.42.42,0,0,0,.37.26,1.37,1.37,0,0,0,.49-.17,9.78,9.78,0,0,0,2.39-2q1.08-1.24,2.6-3.36A27,27,0,0,0,40.51,42.89Z" transform="translate(-12.26 -5)"/><path class="cls-1" d="M50,5a37.7,37.7,0,0,0-37.7,37.7C12.26,63.52,50,96.32,50,96.32s37.7-32.81,37.7-53.63A37.7,37.7,0,0,0,50,5ZM33.5,46.33l-.36.63-.32.56q-.93,1.63-1.75,1.63a.78.78,0,0,1-.6-.27,1.07,1.07,0,0,1-.25-.75,5.26,5.26,0,0,1,.48-1.84,23.81,23.81,0,0,1,1.48-2.88q1-1.71,2.52-3.87T38.12,35a18,18,0,0,0-2.6-.16,21.74,21.74,0,0,0-3.85.39,29.52,29.52,0,0,0-3.69.89q-1.57.5-1.57.74a.12.12,0,0,0,.06.12.68.68,0,0,0,.2,0L27,37q1.46.2,1.46.45c0,.08-.21.12-.63.12H26.33a6.57,6.57,0,0,1-1-.06.61.61,0,0,1-.42-.21.86.86,0,0,1-.11-.48,7.1,7.1,0,0,1,.12-.92,6.07,6.07,0,0,1,.73-2.11,3.58,3.58,0,0,1,1.5-1.3,10.24,10.24,0,0,1,2.79-.8,30.4,30.4,0,0,1,4.94-.51,17.13,17.13,0,0,1,2.28.12,3.6,3.6,0,0,1,1.22.34,1.19,1.19,0,0,1,.5.44,6.67,6.67,0,0,1,.28.75L39.52,34l.06.18,0,.14a.57.57,0,0,1,0,.14,1.74,1.74,0,0,1-.22.87,12.13,12.13,0,0,1-.8,1.16q-.58.77-.85,1.21a87,87,0,0,0-4.38,7.71l.41.31C33.71,46,33.6,46.16,33.5,46.33Zm41.64-1.55a6.55,6.55,0,0,1-1.32,1,2.93,2.93,0,0,1-1.43.2q-1.62,1.92-2.85,1.92a2,2,0,0,1-1.27-.46,3.18,3.18,0,0,1-.91-1.26,4.26,4.26,0,0,1-.29-1.23l-4,3.26a23.92,23.92,0,0,1-3.17,4.5q-1.43,1.49-2.13,1.49-.37,0-.37-.46a4.56,4.56,0,0,1,.91-2.29,9.37,9.37,0,0,1,.83-1.07,12,12,0,0,1,.88-.9q.42-.38,1.1-.94l.93-.78q1.24-2.54,1.79-3.88-1.17,1.24-2,2a9.86,9.86,0,0,1-1.6,1.23,2.65,2.65,0,0,1-1.31.43q-.63,0-1.17-1a4.44,4.44,0,0,1-.48-1.62c-1.11,1.09-2,1.88-2.57,2.38a2.76,2.76,0,0,1-1.54.77q-1,0-1-1.34a2.51,2.51,0,0,1,.12-.78,5.27,5.27,0,0,1,.34-.8q.22-.42.67-1.19c.3-.52.64-1.1,1-1.76a7.82,7.82,0,0,0-1.78,1.43,13.7,13.7,0,0,0-1.18,1.27c-.32.4-.67.85-1,1.34a10.62,10.62,0,0,1-.81,1,.74.74,0,0,1-.52.26q-.4,0-.73-.83A5,5,0,0,1,47.94,45c-2,2.17-3.42,3.26-4.29,3.26a.76.76,0,0,1-.69-.32,1.74,1.74,0,0,1-.2-.94,8.86,8.86,0,0,1,.71-2.85q-1.82,2-2.7,2.87a2.43,2.43,0,0,1-1.46.85c-.18,0-.41-.16-.68-.47a4.55,4.55,0,0,1-.73-1.23,4,4,0,0,1-.32-1.56,3.61,3.61,0,0,1,.11-1,2.37,2.37,0,0,1,.44-.8,11,11,0,0,1,1-1.08,15.11,15.11,0,0,1,3.67-2.55,7.17,7.17,0,0,1,2.75-.83.69.69,0,0,1,.49.22,1.65,1.65,0,0,1,.35.5,1.18,1.18,0,0,1,.13.42.36.36,0,0,1-.17.33,3.53,3.53,0,0,1-.61.26l.22.51c.09.21.16.37.21.5a1,1,0,0,1,.07.34,2.61,2.61,0,0,1-.6,1.11q-.6.81-.85,1.2a1.74,1.74,0,0,0-.24.95c0,.61.28.92.85.92A5,5,0,0,0,48,44.16a2.17,2.17,0,0,1,.12-.53,7.15,7.15,0,0,1,.62-1.09,12.18,12.18,0,0,1,1.48-1.93A1.76,1.76,0,0,1,51.36,40a1.31,1.31,0,0,1,.64.14.45.45,0,0,1,.24.42.55.55,0,0,1-.07.26,1.56,1.56,0,0,1-.17.25l-.39.44q-2,2.18-2,2.82c0,.24.08.36.24.36s.29-.16.58-.48l1.11-1.26a20,20,0,0,1,1.61-1.62,17.21,17.21,0,0,1,2.11-1.63,2.07,2.07,0,0,1,1.09-.46q.2,0,.39.55A3.27,3.27,0,0,1,57,40.89c0,.18-.18.46-.54.83q-2.19,2.44-2.19,3.4c0,.36.14.54.43.54a1.87,1.87,0,0,0,.94-.38c.36-.24.92-.65,1.66-1.23a3,3,0,0,1,.18-.63,5.15,5.15,0,0,1,.72-1.17A9.44,9.44,0,0,1,59.42,41a13.45,13.45,0,0,1,1.78-1.27,6.39,6.39,0,0,1,3-1.21q.8,0,.8.58,0,.81-1.73,1.58a11,11,0,0,0-2.09,1.22,7.92,7.92,0,0,0-1.68,1.61A2.66,2.66,0,0,0,58.85,45a.82.82,0,0,0,.16.53.52.52,0,0,0,.42.2,1.79,1.79,0,0,0,1-.4,19.13,19.13,0,0,0,1.65-1.41,14.72,14.72,0,0,0,1.32-1.49,20.43,20.43,0,0,1,1.37-1.57,1.49,1.49,0,0,1,1-.54.55.55,0,0,1,.4.16.62.62,0,0,1,.16.45,4.81,4.81,0,0,1-.45,1.66q-.45,1.09-1.64,3.56l2.84-2.07a3.92,3.92,0,0,1,.49-1.49,7.92,7.92,0,0,1,1.37-1.81,7.75,7.75,0,0,1,1.8-1.36,3.78,3.78,0,0,1,1.78-.52,2,2,0,0,1,.92.18.55.55,0,0,1,.34.5.93.93,0,0,1-.29.57,1.06,1.06,0,0,1,.65.33,1.47,1.47,0,0,1,.17.84A5.32,5.32,0,0,1,74,42.88a7.48,7.48,0,0,1-.77,1.7l.22.22h.19a.89.89,0,0,0,.42-.11,2.78,2.78,0,0,0,.37-.22l.71-.53Z" transform="translate(-12.26 -5)"/></svg>