<svg id="Layer_1" data-name="Layer 1" xmlns="http://www.w3.org/2000/svg" viewBox="0 0 358 114.4"><defs><style>.cls-1{fill:#fff;}.cls-2{fill:#f53d49;}</style></defs><title>tangologo</title><g id="Logo"><path class="cls-1" d="M213.34,197.21s-28,8.63-28,28S222,257.6,241.37,257.6c41,0,64.7-19.41,64.7-19.41s0,53.92-49.6,53.92c-38.82,0-69-36.66-69-36.66s21.57,45.29,82,45.29c32.35,0,58.23-34.51,58.23-77.64,0,0-51.76,23.72-82,23.72-6.47,0-41-2.16-41-28C204.71,203.68,213.34,197.21,213.34,197.21Z" transform="translate(-71 -192.8)"/><path class="cls-2" d="M71,201.52v19.41s45.29,23.72,82,23.72c53.92,0,66.86-41,146.65-41,25.88,0,56.07,8.63,56.07,8.63s-28-19.41-62.54-19.41c-77.64-2.16-92.73,32.35-151,32.35C94.72,225.25,71,201.52,71,201.52Z" transform="translate(-71 -192.8)"/><path class="cls-2" d="M429,264.07v19.41s-45.29,23.72-82,23.72c-53.92,0-66.86-41-146.65-41-25.88,0-56.07,8.63-56.07,8.63s28-19.41,62.54-19.41c77.64-2.16,92.73,32.35,151,32.35C405.28,287.79,429,264.07,429,264.07Z" transform="translate(-71 -192.8)"/></g></svg>